<svg id="Layer_1" data-name="Layer 1" xmlns="http://www.w3.org/2000/svg" viewBox="0 0 1133.86 850.39"><defs><style>.cls-1{font-size:72.33px;}.cls-1,.cls-2,.cls-6{fill:#1d1d1b;}.cls-1,.cls-4,.cls-6{font-family:Stolzl-Bold, Stolzl;font-weight:700;}.cls-3,.cls-4{fill:#951b81;}.cls-4{font-size:82.98px;letter-spacing:-0.06em;}.cls-5{letter-spacing:0em;}.cls-6{font-size:50.1px;letter-spacing:0.2em;}</style></defs><text class="cls-1" transform="translate(566.71 545.08) rotate(-90) scale(0.83 1)">the</text><polygon class="cls-2" points="547.44 424.81 535.73 424.81 535.73 395.38 562.47 395.38 457.05 307.46 351.64 395.38 378.37 395.38 378.37 543.57 366.66 543.57 366.66 405.15 323.36 405.15 457.05 293.64 590.74 405.15 547.44 405.15 547.44 424.81"/><rect class="cls-3" x="422.81" y="423.42" width="23.27" height="19.41"/><rect class="cls-3" x="468.02" y="423.42" width="23.27" height="19.41"/><rect class="cls-3" x="422.81" y="459.45" width="23.27" height="19.41"/><rect class="cls-3" x="468.02" y="459.45" width="23.27" height="19.41"/><text class="cls-4" transform="translate(574.83 492.4) scale(1.2 1)">Y<tspan class="cls-5" x="53.52" y="0">OU</tspan></text><text class="cls-6" transform="translate(577.48 543.57) scale(1.2 1)">CREW</text><polygon class="cls-2" points="368.99 543.57 368.99 533.35 503.9 533.35 506.73 543.57 368.99 543.57"/></svg>